# xmcd
#
# Track frame offsets:
#       150
#       11357
#       25530
#       38480
#       51315
#       64895
#       74132
#       88345
#       102510
#       112940
#       123275
#       134350
#       144710
#       159440
#
# Disc length: 2293 seconds
#
# Revision: 2
# Processed by: cddbd v1.4PL0 Copyright (c) Steve Scherf et al.
# Submitted via: CD-DA_X-Tractor v0.21
#
DISCID=c108f30e
DTITLE=J. B. Lenoir - Mama Talk To Your Daughter
DYEAR=1900
DGENRE=
TTITLE0=Mama Talk To Your Daughter
TTITLE1=Man Watch Your Woman
TTITLE2=Eisenhower Blues
TTITLE3=If You Love Me
TTITLE4=Sitting Down Thinkin'
TTITLE5=Mama, Your Daughter Is Going To Miss Me
TTITLE6=What Have I Done
TTITLE7=We Can't Go On This Way
TTITLE8=Give Me One More Shot
TTITLE9=Everybody Wants To Know
TTITLE10=Low Down Dirty Shame
TTITLE11=Don't Touch My Head
TTITLE12=I've Been Down For So Long
TTITLE13=Daddy Talk To Your Son
EXTD=
EXTT0=
EXTT1=
EXTT2=
EXTT3=
EXTT4=
EXTT5=
EXTT6=
EXTT7=
EXTT8=
EXTT9=
EXTT10=
EXTT11=
EXTT12=
EXTT13=
PLAYORDER=
